<svg width="146" height="23" viewBox="0 0 146 23" fill="none" xmlns="http://www.w3.org/2000/svg">
<path d="M0.696 18.408C0.504 18.408 0.344 18.304 0.216 18.096C0.12 18 0.0559999 17.864 0.0239998 17.688C0.00799978 17.528 0.0639998 17.232 0.192 16.8C0.32 16.352 0.536 15.672 0.84 14.76C1 14.152 1.128 13.712 1.224 13.44C1.32 13.152 1.368 12.944 1.368 12.816C1.368 12.64 1.384 12.496 1.416 12.384C1.464 12.256 1.488 12.136 1.488 12.024C1.584 12.024 1.68 11.936 1.776 11.76C1.872 11.584 1.952 11.344 2.016 11.04C2.08 10.768 2.136 10.552 2.184 10.392C2.248 10.216 2.28 10.096 2.28 10.032C2.36 9.904 2.44 9.704 2.52 9.432C2.616 9.16 2.76 8.832 2.952 8.448C3.08 7.968 3.224 7.472 3.384 6.96C3.544 6.432 3.704 5.944 3.864 5.496C4.04 5.032 4.184 4.672 4.296 4.416C4.472 3.92 4.608 3.576 4.704 3.384C4.8 3.176 4.8 3.04 4.704 2.976C4.592 2.896 4.568 2.76 4.632 2.568C4.696 2.376 4.872 2.16 5.16 1.92C5.336 1.712 5.488 1.568 5.616 1.488C5.744 1.392 5.904 1.344 6.096 1.344C6.304 1.344 6.6 1.36 6.984 1.392C7.272 1.408 7.576 1.416 7.896 1.416C8.232 1.416 8.44 1.416 8.52 1.416C8.664 1.48 8.84 1.552 9.048 1.632C9.256 1.696 9.44 1.76 9.6 1.824C9.776 1.888 9.864 1.944 9.864 1.992C9.864 2.088 9.896 2.152 9.96 2.184C10.04 2.2 10.12 2.216 10.2 2.232C10.312 2.232 10.464 2.32 10.656 2.496C10.848 2.656 11.048 2.864 11.256 3.12C11.464 3.36 11.624 3.616 11.736 3.888C11.864 4.16 11.96 4.416 12.024 4.656C12.104 4.896 12.104 5.24 12.024 5.688C12.008 5.928 11.968 6.168 11.904 6.408C11.856 6.648 11.8 6.808 11.736 6.888C11.64 6.952 11.552 7.032 11.472 7.128C11.392 7.224 11.352 7.312 11.352 7.392C11.352 7.456 11.296 7.584 11.184 7.776C11.072 7.952 10.928 8.16 10.752 8.4C10.576 8.64 10.384 8.88 10.176 9.12C9.968 9.36 9.768 9.568 9.576 9.744C9.368 10 9.12 10.24 8.832 10.464C8.56 10.688 8.312 10.872 8.088 11.016C7.672 11.208 7.208 11.4 6.696 11.592C6.2 11.784 5.72 11.944 5.256 12.072C4.808 12.2 4.432 12.256 4.128 12.24C3.664 12.304 3.36 12.368 3.216 12.432C3.088 12.48 2.992 12.616 2.928 12.84C2.848 13.048 2.768 13.264 2.688 13.488C2.624 13.696 2.592 13.84 2.592 13.92C2.56 13.984 2.48 14.184 2.352 14.52C2.24 14.84 2.112 15.216 1.968 15.648C1.84 16.08 1.712 16.504 1.584 16.92C1.456 17.336 1.36 17.68 1.296 17.952C1.232 18.176 1.152 18.304 1.056 18.336C0.96 18.384 0.84 18.408 0.696 18.408ZM3.672 10.968C3.736 11.032 3.984 11.04 4.416 10.992C4.848 10.944 5.312 10.824 5.808 10.632C6.128 10.52 6.448 10.384 6.768 10.224C7.104 10.064 7.424 9.888 7.728 9.696C7.888 9.584 8.128 9.384 8.448 9.096C8.768 8.808 9.088 8.464 9.408 8.064C9.456 7.984 9.536 7.832 9.648 7.608C9.776 7.368 9.888 7.144 9.984 6.936C10.128 6.712 10.272 6.384 10.416 5.952C10.56 5.504 10.592 5.136 10.512 4.848C10.432 4.432 10.224 4.048 9.888 3.696C9.552 3.328 9.152 3.08 8.688 2.952C8.336 2.888 8.04 2.856 7.8 2.856C7.576 2.856 7.328 2.88 7.056 2.928C6.8 3.008 6.608 3.12 6.48 3.264C6.368 3.408 6.216 3.712 6.024 4.176C5.912 4.4 5.752 4.744 5.544 5.208C5.336 5.656 5.16 6.08 5.016 6.48C4.728 7.536 4.44 8.408 4.152 9.096C3.88 9.768 3.712 10.192 3.648 10.368C3.664 10.544 3.656 10.672 3.624 10.752C3.592 10.816 3.608 10.888 3.672 10.968ZM23.6916 1.152C23.9636 1.216 24.1636 1.376 24.2916 1.632C24.4356 1.872 24.4676 2.128 24.3876 2.4C24.3556 2.512 24.3076 2.632 24.2436 2.76C24.1956 2.872 24.1476 3 24.0996 3.144C23.9876 3.352 23.8436 3.672 23.6676 4.104C23.4916 4.52 23.2996 4.968 23.0916 5.448C22.8996 5.912 22.7236 6.328 22.5636 6.696C22.4036 7.064 22.2916 7.304 22.2276 7.416C22.0676 7.736 21.8996 8.056 21.7236 8.376C21.5476 8.696 21.3636 9.016 21.1716 9.336C20.9156 9.8 20.6436 10.264 20.3556 10.728C20.0676 11.192 19.7716 11.656 19.4676 12.12C19.3716 12.28 19.1956 12.536 18.9396 12.888C18.6996 13.224 18.4516 13.56 18.1956 13.896C17.9396 14.216 17.7476 14.448 17.6196 14.592C17.3316 15.024 17.0036 15.432 16.6356 15.816C16.2836 16.184 15.9236 16.552 15.5556 16.92C15.4276 17.064 15.2916 17.208 15.1476 17.352C15.0036 17.496 14.8596 17.64 14.7156 17.784C14.5876 17.944 14.4436 18.096 14.2836 18.24C14.0596 18.512 13.7876 18.552 13.4676 18.36C13.3076 18.264 13.1796 18.16 13.0836 18.048C12.9876 17.936 12.9716 17.792 13.0356 17.616C13.0516 17.568 13.1556 17.448 13.3476 17.256C13.5396 17.048 13.7556 16.816 13.9956 16.56C14.2516 16.304 14.4836 16.072 14.6916 15.864C14.9156 15.64 15.0676 15.496 15.1476 15.432C15.3716 15.176 15.6036 14.92 15.8436 14.664C16.0836 14.392 16.3076 14.096 16.5156 13.776C16.1316 13.456 15.8276 13.088 15.6036 12.672C15.3956 12.256 15.2276 11.824 15.0996 11.376C15.0676 11.232 15.0196 11.096 14.9556 10.968C14.9076 10.84 14.8916 10.704 14.9076 10.56L14.4996 8.448C14.5476 8.32 14.5556 8.192 14.5236 8.064C14.4916 7.936 14.4676 7.808 14.4516 7.68L14.3796 3.504C14.3796 3.552 14.3796 3.496 14.3796 3.336C14.3956 3.16 14.4116 2.944 14.4276 2.688C14.4436 2.416 14.4596 2.16 14.4756 1.92C14.5076 1.68 14.5316 1.512 14.5476 1.416C14.5636 1.32 14.5636 1.2 14.5476 1.056C14.5476 0.912 14.5716 0.792 14.6196 0.695999C14.6836 0.584 14.7876 0.528 14.9316 0.528C15.1556 0.495999 15.3636 0.551999 15.5556 0.695999C15.7476 0.839999 15.8916 1 15.9876 1.176C16.0996 1.352 16.1236 1.488 16.0596 1.584C15.9636 1.76 15.9236 1.944 15.9396 2.136C15.9556 2.328 15.9476 2.512 15.9156 2.688C15.8996 2.816 15.8836 3.064 15.8676 3.432C15.8516 3.784 15.8356 4.184 15.8196 4.632C15.8036 5.064 15.7956 5.488 15.7956 5.904C15.7956 6.304 15.8036 6.616 15.8196 6.84C15.8036 6.712 15.8036 6.744 15.8196 6.936C15.8356 7.112 15.8596 7.352 15.8916 7.656C15.9236 7.96 15.9556 8.248 15.9876 8.52C16.0196 8.792 16.0436 8.96 16.0596 9.024C16.0596 9.232 16.0996 9.52 16.1796 9.888C16.2596 10.24 16.3636 10.616 16.4916 11.016C16.6196 11.416 16.7476 11.784 16.8756 12.12C17.0036 12.456 17.1156 12.72 17.2116 12.912L17.5476 12.504C17.6916 12.28 17.8436 12.08 18.0036 11.904C18.1636 11.712 18.2916 11.504 18.3876 11.28C18.5156 10.992 18.6676 10.72 18.8436 10.464C19.0196 10.208 19.1796 9.944 19.3236 9.672C19.4676 9.384 19.6276 9.112 19.8036 8.856C19.9796 8.584 20.1316 8.312 20.2596 8.04L21.8196 5.088C21.9796 4.576 22.1796 3.984 22.4196 3.312C22.6756 2.64 22.8436 2.008 22.9236 1.416C22.9716 1.24 23.0756 1.152 23.2356 1.152C23.3156 1.152 23.3956 1.144 23.4756 1.128C23.5556 1.112 23.6276 1.12 23.6916 1.152ZM33.8848 18.192C33.8208 18.192 33.7008 18.168 33.5248 18.12C33.3488 18.072 33.1408 17.992 32.9008 17.88C32.6768 17.768 32.4608 17.624 32.2528 17.448C32.0448 17.272 31.8768 17.056 31.7488 16.8C31.6368 16.656 31.4608 16.456 31.2208 16.2C30.9808 15.944 30.7728 15.712 30.5968 15.504C30.0048 14.912 29.5008 14.368 29.0848 13.872C28.6848 13.376 28.3648 12.952 28.1248 12.6C27.9328 12.408 27.7488 12.224 27.5728 12.048C27.4128 11.856 27.2608 11.696 27.1168 11.568C26.9728 11.424 26.8368 11.336 26.7088 11.304C26.6288 11.368 26.5568 11.464 26.4928 11.592C26.4288 11.72 26.3728 11.92 26.3248 12.192C26.2128 12.432 26.1088 12.728 26.0128 13.08C25.9168 13.432 25.8448 13.704 25.7968 13.896C25.6688 14.184 25.5648 14.472 25.4848 14.76C25.4208 15.032 25.3568 15.272 25.2928 15.48C25.2288 15.688 25.1648 15.856 25.1008 15.984C25.0528 16.112 24.9968 16.208 24.9328 16.272C24.9328 16.272 24.9088 16.384 24.8608 16.608C24.8128 16.816 24.7648 17.016 24.7168 17.208C24.5568 17.992 24.4048 18.432 24.2608 18.528C24.1328 18.64 23.8608 18.52 23.4448 18.168C23.3328 17.96 23.2368 17.792 23.1568 17.664C23.0768 17.536 23.0368 17.44 23.0368 17.376C23.0368 17.376 23.0848 17.24 23.1808 16.968C23.2768 16.68 23.3808 16.344 23.4928 15.96C23.5728 15.688 23.6848 15.336 23.8288 14.904C23.9888 14.456 24.1488 13.984 24.3088 13.488C24.4688 12.976 24.6208 12.488 24.7648 12.024C24.9088 11.544 25.0208 11.136 25.1008 10.8C25.1648 10.736 25.1968 10.672 25.1968 10.608C25.2128 10.544 25.2208 10.456 25.2208 10.344C25.2528 10.248 25.3328 10.024 25.4608 9.672C25.5888 9.304 25.7408 8.896 25.9168 8.448C26.0928 7.984 26.2608 7.552 26.4208 7.152C26.5968 6.736 26.7408 6.44 26.8528 6.264C26.9168 6.136 26.9488 6.024 26.9488 5.928C26.9648 5.832 26.9728 5.784 26.9728 5.784C26.9728 5.64 27.0448 5.552 27.1888 5.52C27.1888 5.44 27.1888 5.36 27.1888 5.28C27.2048 5.2 27.2448 5.128 27.3088 5.064C27.3568 4.936 27.4528 4.688 27.5968 4.32C27.7408 3.952 27.8848 3.552 28.0288 3.12C28.1888 2.672 28.3248 2.28 28.4368 1.944C28.5488 1.608 28.6048 1.424 28.6048 1.392C28.6048 1.312 28.6288 1.248 28.6768 1.2C28.7248 1.136 28.7728 1.072 28.8208 1.008C28.9808 0.879999 29.1408 0.823999 29.3008 0.84C29.4768 0.84 29.6448 0.896 29.8048 1.008C29.9808 1.12 30.1328 1.28 30.2608 1.488C30.2608 1.552 30.2368 1.696 30.1888 1.92C30.1408 2.144 30.0608 2.392 29.9488 2.664C29.8368 2.936 29.7328 3.176 29.6368 3.384C29.5408 3.592 29.4928 3.696 29.4928 3.696C29.4928 3.696 29.3968 3.96 29.2048 4.488C29.0288 5 28.8048 5.616 28.5328 6.336C28.2128 6.992 27.9488 7.584 27.7408 8.112C27.5488 8.624 27.4848 8.912 27.5488 8.976C27.5488 8.976 27.7648 8.816 28.1968 8.496C28.6288 8.16 29.1008 7.744 29.6128 7.248C30.0288 6.832 30.4848 6.432 30.9808 6.048C31.4768 5.648 31.9808 5.264 32.4928 4.896C33.2288 4.4 33.7808 4.032 34.1488 3.792C34.5328 3.536 34.8208 3.368 35.0128 3.288C35.2048 3.192 35.3888 3.144 35.5648 3.144C35.7728 3.064 35.9088 3.056 35.9728 3.12C36.0368 3.168 36.1648 3.248 36.3568 3.36C36.4208 3.472 36.4768 3.584 36.5248 3.696C36.5888 3.792 36.6208 3.84 36.6208 3.84C36.6368 4 36.5488 4.152 36.3568 4.296C36.1648 4.44 35.8848 4.608 35.5168 4.8C35.1168 5.056 34.6288 5.392 34.0528 5.808C33.4928 6.208 32.9088 6.648 32.3008 7.128C31.7088 7.608 31.1488 8.08 30.6208 8.544C30.0928 9.008 29.6448 9.424 29.2768 9.792C28.9248 10.144 28.7168 10.408 28.6528 10.584C28.5408 10.696 28.5008 10.808 28.5328 10.92C28.5808 11.032 28.7568 11.232 29.0608 11.52C29.2848 11.792 29.4608 12.016 29.5888 12.192C29.7168 12.352 29.7808 12.432 29.7808 12.432C29.7808 12.464 29.8688 12.576 30.0448 12.768C30.2208 12.96 30.4288 13.176 30.6688 13.416C30.9248 13.656 31.1568 13.88 31.3648 14.088C31.4288 14.248 31.6048 14.472 31.8928 14.76C32.1808 15.032 32.4528 15.368 32.7088 15.768C33.4768 16.568 33.9648 17.168 34.1728 17.568C34.3968 17.968 34.3008 18.176 33.8848 18.192ZM38.3042 17.112C37.4722 16.808 36.8802 16.264 36.5282 15.48C36.1922 14.696 36.1282 13.696 36.3362 12.48C36.3682 12.016 36.4402 11.6 36.5522 11.232C36.6802 10.864 36.7762 10.496 36.8402 10.128C36.8402 10.096 36.8562 10.048 36.8882 9.984C36.9202 9.904 36.9282 9.832 36.9122 9.768C36.9442 9.672 37.0162 9.496 37.1282 9.24C37.2402 8.968 37.3522 8.712 37.4642 8.472C37.5762 8.216 37.6482 8.072 37.6802 8.04C37.7602 8.008 37.8002 7.968 37.8002 7.92C37.8002 7.856 37.8002 7.824 37.8002 7.824C37.8002 7.696 37.8882 7.464 38.0642 7.128C38.2402 6.792 38.4642 6.424 38.7362 6.024C39.0242 5.608 39.3122 5.208 39.6002 4.824C39.8882 4.44 40.1442 4.12 40.3682 3.864C40.5922 3.608 40.7362 3.48 40.8002 3.48C40.8482 3.48 40.8882 3.448 40.9202 3.384C40.9522 3.32 40.9842 3.28 41.0162 3.264C41.0642 3.2 41.1842 3.112 41.3762 3C41.5842 2.888 41.8242 2.768 42.0962 2.64C42.3682 2.512 42.6402 2.392 42.9122 2.28C43.2002 2.168 43.4642 2.088 43.7042 2.04C44.4082 1.784 44.9922 1.776 45.4562 2.016C45.9202 2.24 46.2722 2.688 46.5122 3.36C46.7682 4.032 46.9042 4.912 46.9202 6C46.8562 6.352 46.8162 6.688 46.8002 7.008C46.8002 7.312 46.7762 7.536 46.7282 7.68C46.7122 8.032 46.6562 8.432 46.5602 8.88C46.4642 9.328 46.3682 9.72 46.2722 10.056C46.1762 10.376 46.1042 10.544 46.0562 10.56C46.0562 10.624 46.0402 10.688 46.0082 10.752C45.9762 10.8 45.9602 10.848 45.9602 10.896C45.9762 10.976 45.9202 11.16 45.7922 11.448C45.6642 11.736 45.5122 12.056 45.3362 12.408C45.1602 12.76 45.0002 13.064 44.8562 13.32C44.7122 13.576 44.6242 13.704 44.5922 13.704C44.5922 13.704 44.5762 13.712 44.5442 13.728C44.5122 13.728 44.5042 13.76 44.5202 13.824C44.5362 13.856 44.4802 13.936 44.3522 14.064C44.2242 14.192 44.0802 14.32 43.9202 14.448C43.7762 14.56 43.6642 14.616 43.5842 14.616C43.5842 14.616 43.5682 14.624 43.5362 14.64C43.5202 14.656 43.5362 14.688 43.5842 14.736C43.6002 14.768 43.4882 14.888 43.2482 15.096C43.0242 15.288 42.7362 15.512 42.3842 15.768C42.0322 16.008 41.6722 16.24 41.3042 16.464C40.9522 16.672 40.6562 16.8 40.4162 16.848C40.3682 16.912 40.3202 16.952 40.2722 16.968C40.2242 16.968 40.1602 16.976 40.0802 16.992C39.9682 17.104 39.8002 17.184 39.5762 17.232C39.3682 17.28 39.1442 17.288 38.9042 17.256C38.6802 17.24 38.4802 17.192 38.3042 17.112ZM40.3442 15.336C40.6642 15.224 41.0162 15.04 41.4002 14.784C41.7842 14.512 42.1282 14.232 42.4322 13.944C42.7522 13.64 42.9442 13.384 43.0082 13.176C43.0562 13 43.1042 12.872 43.1522 12.792C43.2162 12.696 43.2802 12.624 43.3442 12.576C43.4722 12.448 43.6322 12.208 43.8242 11.856C44.0322 11.504 44.2322 11.112 44.4242 10.68C44.6162 10.248 44.7762 9.848 44.9042 9.48C45.0482 9.096 45.1282 8.816 45.1442 8.64C45.1442 8.608 45.1682 8.472 45.2162 8.232C45.2642 7.992 45.3202 7.816 45.3842 7.704C45.4162 7.64 45.4402 7.56 45.4562 7.464C45.4722 7.352 45.4882 7.136 45.5042 6.816C45.5202 6.496 45.5362 5.984 45.5522 5.28C45.5362 4.704 45.5042 4.272 45.4562 3.984C45.4242 3.696 45.3442 3.52 45.2162 3.456C45.1842 3.424 45.0722 3.408 44.8802 3.408C44.6882 3.408 44.4882 3.424 44.2802 3.456C44.0722 3.472 43.9122 3.504 43.8002 3.552C43.7202 3.568 43.6402 3.608 43.5602 3.672C43.4802 3.72 43.3922 3.744 43.2962 3.744C43.1682 3.808 43.0722 3.888 43.0082 3.984C42.9442 4.08 42.9122 4.152 42.9122 4.2C42.9122 4.328 42.8562 4.448 42.7442 4.56C42.6322 4.656 42.5042 4.664 42.3602 4.584C42.1042 4.6 41.9122 4.648 41.7842 4.728C41.6562 4.792 41.5362 4.912 41.4242 5.088C41.3282 5.264 41.1762 5.528 40.9682 5.88C40.5202 6.232 40.2002 6.576 40.0082 6.912C39.8162 7.248 39.7042 7.504 39.6722 7.68C39.3362 8.288 39.0802 8.76 38.9042 9.096C38.7282 9.416 38.6002 9.704 38.5202 9.96C38.4562 10.216 38.4002 10.528 38.3522 10.896C38.2082 11.168 38.1042 11.456 38.0402 11.76C37.9762 12.064 37.9202 12.264 37.8722 12.36C37.8402 12.44 37.8162 12.608 37.8002 12.864C37.7842 13.12 37.7762 13.408 37.7762 13.728C37.7762 14.048 37.7842 14.344 37.8002 14.616C37.8322 14.872 37.8722 15.048 37.9202 15.144C38.0162 15.512 38.2722 15.712 38.6882 15.744C39.1202 15.776 39.6722 15.64 40.3442 15.336ZM47.1864 21.912C46.9624 22.04 46.8024 22.104 46.7064 22.104C46.6264 22.12 46.4984 22.04 46.3224 21.864C46.1784 21.704 46.0664 21.552 45.9864 21.408C45.9064 21.28 45.8744 21.112 45.8904 20.904C45.9224 20.552 45.9944 20.112 46.1064 19.584C46.2184 19.056 46.3384 18.52 46.4664 17.976C46.6104 17.432 46.7224 16.984 46.8024 16.632C46.8504 16.408 46.9064 16.28 46.9704 16.248C47.0504 16.2 47.1944 16.176 47.4024 16.176C47.6584 16.176 47.9064 16.176 48.1464 16.176C48.4024 16.16 48.6504 16.136 48.8904 16.104L49.4184 16.056C49.7064 15.752 49.9864 15.456 50.2584 15.168C50.5464 14.88 50.8264 14.584 51.0984 14.28C51.2744 14.072 51.4744 13.808 51.6984 13.488C51.9384 13.152 52.1704 12.816 52.3944 12.48C52.6184 12.128 52.8024 11.832 52.9464 11.592C53.3784 10.888 53.7944 10.208 54.1944 9.552C54.5944 8.896 55.0024 8.136 55.4184 7.272C55.6744 6.76 55.8904 6.224 56.0664 5.664C56.2584 5.088 56.4824 4.552 56.7384 4.056C56.9624 3.672 57.1224 3.264 57.2184 2.832C57.3304 2.384 57.4664 1.96 57.6264 1.56C57.4504 1.464 57.0264 1.52 56.3544 1.728C55.6984 1.92 54.8984 2.224 53.9544 2.64C53.6824 2.736 53.4504 2.728 53.2584 2.616C53.0824 2.488 52.9544 2.328 52.8744 2.136C52.8104 1.928 52.8024 1.736 52.8504 1.56C52.8984 1.384 53.0104 1.288 53.1864 1.272C53.3624 1.24 53.5224 1.184 53.6664 1.104C53.8264 1.024 53.9864 0.96 54.1464 0.911999C54.5144 0.816 54.8584 0.72 55.1784 0.624C55.5144 0.512 55.8744 0.432 56.2584 0.384C56.4504 0.352 56.6504 0.32 56.8584 0.288C57.0824 0.256 57.2824 0.207999 57.4584 0.143999C57.7944 0.0479994 58.1624 0.0319996 58.5624 0.0959997C58.9624 0.144 59.4744 0.192 60.0984 0.239999C60.7704 0.239999 61.4104 0.4 62.0184 0.72C62.6264 1.024 63.2344 1.304 63.8424 1.56C63.9384 1.672 64.0424 1.848 64.1544 2.088C64.2664 2.312 64.3144 2.504 64.2984 2.664C64.2984 2.84 64.2344 3.168 64.1064 3.648C63.9784 4.128 63.8104 4.672 63.6024 5.28C63.4104 5.888 63.2104 6.496 63.0024 7.104C62.8104 7.696 62.6344 8.208 62.4744 8.64C62.3144 9.072 62.2104 9.352 62.1624 9.48C62.1304 9.544 62.0744 9.68 61.9944 9.888C61.9144 10.096 61.8424 10.304 61.7784 10.512C61.7144 10.704 61.6744 10.824 61.6584 10.872C61.6264 11.16 61.5704 11.424 61.4904 11.664C61.4104 11.888 61.3144 12.136 61.2024 12.408C61.0104 12.904 60.8184 13.424 60.6264 13.968C60.4344 14.496 60.2664 15.032 60.1224 15.576C60.4584 15.688 60.8024 15.752 61.1544 15.768C61.5064 15.784 61.8344 15.848 62.1384 15.96C62.4424 16.072 62.6904 16.336 62.8824 16.752C62.9464 16.88 62.9304 17.096 62.8344 17.4C62.7544 17.72 62.6344 18.08 62.4744 18.48C62.3144 18.88 62.1384 19.28 61.9464 19.68C61.7704 20.096 61.6024 20.456 61.4424 20.76C61.2984 21.064 61.1944 21.28 61.1304 21.408C61.0664 21.552 60.9704 21.656 60.8424 21.72C60.7304 21.784 60.5864 21.784 60.4104 21.72L59.7624 21.144C59.6664 20.904 59.6904 20.6 59.8344 20.232C59.9944 19.88 60.1864 19.512 60.4104 19.128C60.6344 18.744 60.8344 18.368 61.0104 18C61.2024 17.648 61.2824 17.352 61.2504 17.112C60.9624 17.064 60.6664 17.056 60.3624 17.088C60.0744 17.104 59.7864 17.064 59.4984 16.968C59.4664 16.952 59.4264 16.944 59.3784 16.944C59.3304 16.944 59.2824 16.944 59.2344 16.944C58.4664 16.944 57.8504 16.944 57.3864 16.944C56.9384 16.944 56.5784 16.944 56.3064 16.944C56.0504 16.928 55.8184 16.928 55.6104 16.944C55.4184 16.944 55.1944 16.96 54.9384 16.992C54.6824 17.008 54.3384 17.032 53.9064 17.064C53.7624 17.08 53.6184 17.08 53.4744 17.064C53.3304 17.048 53.1944 17.056 53.0664 17.088C52.7624 17.168 52.4504 17.224 52.1304 17.256C51.8104 17.288 51.4664 17.304 51.0984 17.304C50.7784 17.32 50.4984 17.328 50.2584 17.328C50.0344 17.344 49.8344 17.368 49.6584 17.4C49.4184 17.448 49.1784 17.504 48.9384 17.568C48.6984 17.648 48.4504 17.704 48.1944 17.736C48.0024 18.232 47.8424 18.744 47.7144 19.272C47.5864 19.8 47.4664 20.32 47.3544 20.832C47.3064 21.008 47.2824 21.184 47.2824 21.36C47.2984 21.536 47.2664 21.72 47.1864 21.912ZM51.8664 15.792C51.9144 15.792 52.1224 15.784 52.4904 15.768C52.8584 15.752 53.2664 15.736 53.7144 15.72C54.1784 15.688 54.5864 15.664 54.9384 15.648C55.2904 15.632 55.4744 15.632 55.4904 15.648C55.5384 15.616 55.6984 15.592 55.9704 15.576C56.2424 15.56 56.5464 15.552 56.8824 15.552C57.2184 15.536 57.5384 15.528 57.8424 15.528C58.1464 15.528 58.3624 15.528 58.4904 15.528C58.6024 15.288 58.6904 15.04 58.7544 14.784C58.8344 14.512 58.9144 14.248 58.9944 13.992C59.1064 13.624 59.2264 13.264 59.3544 12.912C59.4824 12.544 59.6024 12.184 59.7144 11.832C59.9864 11.016 60.2744 10.248 60.5784 9.528C60.8984 8.792 61.1784 7.944 61.4184 6.984C61.4664 6.76 61.5384 6.544 61.6344 6.336C61.7464 6.112 61.8344 5.888 61.8984 5.664L62.2584 4.44C62.3384 4.216 62.3944 3.984 62.4264 3.744C62.4584 3.488 62.5144 3.264 62.5944 3.072C62.6744 2.912 62.6904 2.752 62.6424 2.592C62.6104 2.432 62.5704 2.272 62.5224 2.112C62.1704 1.92 61.7864 1.752 61.3704 1.608C60.9704 1.448 60.5624 1.368 60.1464 1.368C59.9864 1.368 59.8024 1.336 59.5944 1.272C59.3864 1.208 59.2264 1.248 59.1144 1.392C59.1624 1.568 59.1864 1.696 59.1864 1.776C59.2024 1.856 59.1784 1.984 59.1144 2.16C59.0024 2.544 58.8344 3.032 58.6104 3.624C58.3864 4.2 58.1304 4.824 57.8424 5.496C57.5544 6.152 57.2664 6.8 56.9784 7.44C56.6904 8.064 56.4184 8.624 56.1624 9.12C55.9224 9.6 55.7304 9.944 55.5864 10.152C55.3944 10.424 55.2104 10.704 55.0344 10.992C54.8744 11.28 54.7064 11.568 54.5304 11.856C54.5304 11.872 54.4344 12.016 54.2424 12.288C54.0664 12.544 53.8424 12.864 53.5704 13.248C53.3144 13.632 53.0504 14.016 52.7784 14.4C52.5224 14.784 52.3064 15.112 52.1304 15.384C51.9544 15.64 51.8664 15.776 51.8664 15.792ZM69.387 17.904C69.067 17.824 68.731 17.704 68.379 17.544C68.043 17.4 67.755 17.24 67.515 17.064C67.275 16.872 67.131 16.704 67.083 16.56C67.083 16.48 67.051 16.416 66.987 16.368C66.923 16.304 66.851 16.272 66.771 16.272C66.771 16.272 66.771 16.264 66.771 16.248C66.771 16.232 66.771 16.176 66.771 16.08C66.771 16.016 66.771 15.952 66.771 15.888C66.787 15.808 66.755 15.744 66.675 15.696C66.563 15.456 66.523 15.08 66.555 14.568C66.587 14.056 66.667 13.504 66.795 12.912C66.923 12.32 67.067 11.792 67.227 11.328C67.227 11.184 67.251 11.04 67.299 10.896C67.363 10.752 67.395 10.64 67.395 10.56C67.443 10.416 67.531 10.2 67.659 9.912C67.787 9.608 67.939 9.28 68.115 8.928C68.291 8.56 68.467 8.216 68.643 7.896C68.819 7.56 68.979 7.304 69.123 7.128C69.123 7.048 69.179 6.944 69.291 6.816C69.403 6.688 69.491 6.512 69.555 6.288C69.683 6.16 69.843 5.944 70.035 5.64C70.243 5.336 70.427 5.056 70.587 4.8C70.923 4.528 71.131 4.288 71.211 4.08C71.291 3.856 71.315 3.68 71.283 3.552C71.299 3.312 71.331 3.128 71.379 3C71.443 2.872 71.571 2.768 71.763 2.688C71.971 2.592 72.283 2.496 72.699 2.4C73.211 2.208 73.731 2.072 74.259 1.992C74.803 1.912 75.491 1.864 76.323 1.848C76.579 1.784 76.779 1.752 76.923 1.752C77.067 1.736 77.139 1.728 77.139 1.728C77.171 1.696 77.267 1.704 77.427 1.752C77.603 1.8 77.795 1.872 78.003 1.968C78.211 2.048 78.387 2.128 78.531 2.208C78.691 2.288 78.763 2.352 78.747 2.4C78.747 2.496 78.635 2.592 78.411 2.688C78.203 2.784 77.939 2.872 77.619 2.952C77.299 3.032 76.963 3.096 76.611 3.144C75.891 3.224 75.283 3.32 74.787 3.432C74.307 3.544 73.891 3.704 73.539 3.912C73.203 4.12 72.883 4.392 72.579 4.728C72.291 5.064 71.979 5.504 71.643 6.048C71.211 6.72 70.923 7.208 70.779 7.512C70.651 7.816 70.619 8.008 70.683 8.088C70.763 8.152 70.891 8.184 71.067 8.184C71.259 8.184 71.435 8.168 71.595 8.136C71.771 8.088 71.907 8.064 72.003 8.064C72.003 8.064 72.211 8.016 72.627 7.92C73.043 7.808 73.475 7.72 73.923 7.656C74.435 7.56 74.779 7.488 74.955 7.44C75.147 7.376 75.331 7.336 75.507 7.32C76.051 7.272 76.387 7.328 76.515 7.488C76.659 7.632 76.643 7.808 76.467 8.016C76.307 8.224 76.027 8.408 75.627 8.568C75.467 8.632 75.267 8.704 75.027 8.784C74.787 8.864 74.563 8.936 74.355 9C74.147 9.048 74.011 9.072 73.947 9.072C73.947 9.072 73.883 9.088 73.755 9.12C73.643 9.136 73.483 9.144 73.275 9.144C73.227 9.144 72.995 9.176 72.579 9.24C72.163 9.288 71.771 9.336 71.403 9.384C70.843 9.528 70.411 9.648 70.107 9.744C69.819 9.824 69.603 9.936 69.459 10.08C69.315 10.224 69.179 10.456 69.051 10.776C68.907 11.128 68.763 11.584 68.619 12.144C68.491 12.688 68.387 13.24 68.307 13.8C68.227 14.36 68.187 14.856 68.187 15.288C68.187 15.704 68.243 15.968 68.355 16.08C68.515 16.288 68.835 16.416 69.315 16.464C69.811 16.512 70.347 16.48 70.923 16.368C71.499 16.256 71.979 16.08 72.363 15.84C72.491 15.744 72.643 15.648 72.819 15.552C73.011 15.44 73.195 15.352 73.371 15.288C73.579 15.16 73.723 15.104 73.803 15.12C73.899 15.12 74.099 15.232 74.403 15.456C74.675 15.84 74.699 16.136 74.475 16.344C74.251 16.536 73.691 16.824 72.795 17.208C71.963 17.512 71.299 17.712 70.803 17.808C70.323 17.904 69.851 17.936 69.387 17.904ZM78.6234 18.144C78.4634 18.224 78.2794 18.232 78.0714 18.168C77.8634 18.104 77.6714 17.984 77.4954 17.808C77.3354 17.648 77.2474 17.472 77.2314 17.28C77.2794 17.152 77.3514 17.048 77.4474 16.968C77.5594 16.888 77.6954 16.848 77.8554 16.848C77.9194 16.848 77.9754 16.832 78.0234 16.8C78.0874 16.752 78.1434 16.704 78.1914 16.656C78.3034 16.56 78.4234 16.44 78.5514 16.296C78.6954 16.152 78.8314 16.008 78.9594 15.864C79.1034 15.72 79.2234 15.6 79.3194 15.504C79.4154 15.392 79.4714 15.328 79.4874 15.312C79.7914 14.976 80.0554 14.656 80.2794 14.352C80.5194 14.048 80.8234 13.64 81.1914 13.128C81.3674 12.888 81.5274 12.64 81.6714 12.384C81.8154 12.128 81.9594 11.872 82.1034 11.616C82.2154 11.424 82.3194 11.232 82.4154 11.04C82.5114 10.848 82.6554 10.688 82.8474 10.56C82.9114 10.208 82.9594 10.008 82.9914 9.96C83.0394 9.912 83.1274 9.84 83.2554 9.744L83.1834 9.552C83.4234 9.12 83.5834 8.816 83.6634 8.64C83.7594 8.448 83.8234 8.304 83.8554 8.208C83.8874 8.112 83.9354 7.992 83.9994 7.848C84.0634 7.688 84.1834 7.416 84.3594 7.032C84.4074 6.872 84.4714 6.792 84.5514 6.792C84.6474 6.776 84.6954 6.704 84.6954 6.576C84.6954 6.448 84.7674 6.192 84.9114 5.808C85.0714 5.424 85.2554 5 85.4634 4.536C85.6874 4.072 85.8794 3.664 86.0394 3.312C85.8794 3.312 85.6794 3.344 85.4394 3.408C85.2154 3.456 84.9034 3.592 84.5034 3.816C84.0394 4.04 83.6874 4.216 83.4474 4.344C83.2074 4.456 82.9994 4.528 82.8234 4.56C82.6474 4.576 82.4234 4.544 82.1514 4.464C82.0074 4.192 81.9514 3.904 81.9834 3.6C82.0314 3.28 82.1994 3.064 82.4874 2.952C82.5354 2.936 82.7034 2.872 82.9914 2.76C83.2794 2.648 83.5994 2.528 83.9514 2.4C84.3034 2.272 84.5994 2.168 84.8394 2.088C85.0954 1.992 85.2074 1.952 85.1754 1.968C85.5434 1.872 85.9114 1.768 86.2794 1.656C86.6474 1.544 87.0154 1.416 87.3834 1.272C87.4154 1.272 87.5274 1.264 87.7194 1.248C87.9274 1.232 88.1514 1.208 88.3914 1.176C88.6474 1.144 88.8714 1.112 89.0634 1.08C89.2714 1.048 89.3994 1.016 89.4474 0.984C89.7674 0.968 90.0954 1.008 90.4314 1.104C90.7834 1.2 90.9674 1.304 90.9834 1.416C91.0154 1.544 91.0874 1.632 91.1994 1.68C91.3114 1.712 91.3914 1.792 91.4394 1.92L91.8714 2.256C91.9034 2.256 91.9354 2.376 91.9674 2.616C92.0154 2.84 92.0474 3.032 92.0634 3.192C92.0954 3.368 92.0794 3.656 92.0154 4.056C91.9674 4.44 91.8874 4.848 91.7754 5.28C91.6794 5.696 91.5834 6.056 91.4874 6.36C91.4074 6.664 91.3514 6.816 91.3194 6.816C91.2874 7.024 91.2394 7.248 91.1754 7.488C91.1114 7.728 91.0634 7.96 91.0314 8.184C91.0314 8.2 90.9994 8.32 90.9354 8.544C90.8874 8.768 90.8234 9.024 90.7434 9.312C90.6634 9.6 90.5914 9.848 90.5274 10.056C90.4634 10.264 90.4394 10.368 90.4554 10.368C90.3914 10.816 90.2794 11.32 90.1194 11.88C89.9594 12.44 89.7754 13.016 89.5674 13.608C89.3594 14.184 89.1594 14.736 88.9674 15.264C88.7914 15.776 88.6554 16.224 88.5594 16.608C88.4634 16.736 88.3994 16.88 88.3674 17.04C88.3354 17.2 88.2554 17.344 88.1274 17.472C87.9994 17.584 87.8554 17.672 87.6954 17.736C87.5514 17.8 87.4154 17.8 87.2874 17.736C87.1274 17.672 86.9914 17.584 86.8794 17.472C86.7834 17.36 86.7114 17.216 86.6634 17.04C86.6954 16.992 86.7754 16.8 86.9034 16.464C87.0314 16.128 87.1754 15.736 87.3354 15.288C87.5114 14.84 87.6634 14.432 87.7914 14.064C87.9354 13.68 88.0234 13.432 88.0554 13.32C88.0874 13.208 88.1354 12.984 88.1994 12.648C88.2794 12.312 88.3674 11.96 88.4634 11.592C88.5754 11.208 88.6874 10.912 88.7994 10.704C88.8314 10.608 88.8714 10.392 88.9194 10.056C88.9674 9.704 89.0474 9.328 89.1594 8.928C89.1914 8.832 89.2394 8.64 89.3034 8.352C89.3674 8.048 89.4314 7.76 89.4954 7.488C89.5754 7.2 89.6234 7.04 89.6394 7.008L90.1194 4.824C90.1834 4.648 90.2394 4.352 90.2874 3.936C90.3514 3.504 90.3914 3.112 90.4074 2.76C90.3914 2.728 90.3674 2.696 90.3354 2.664C90.3194 2.616 90.3354 2.56 90.3834 2.496C90.1274 2.496 89.8634 2.512 89.5914 2.544C89.3354 2.56 89.0714 2.584 88.7994 2.616C88.5274 2.648 88.2394 2.696 87.9354 2.76C87.6794 2.792 87.5274 2.928 87.4794 3.168C87.4794 3.248 87.4234 3.432 87.3114 3.72C87.1994 3.992 87.0634 4.312 86.9034 4.68C86.7594 5.032 86.6154 5.376 86.4714 5.712C86.3274 6.032 86.2154 6.272 86.1354 6.432C85.9274 6.816 85.7354 7.208 85.5594 7.608C85.3834 7.992 85.2074 8.384 85.0314 8.784C84.9514 9.04 84.8074 9.392 84.5994 9.84C84.3914 10.272 84.1594 10.736 83.9034 11.232C83.6474 11.728 83.3834 12.216 83.1114 12.696C82.8554 13.16 82.6234 13.552 82.4154 13.872C82.1754 14.224 81.9514 14.536 81.7434 14.808C81.5514 15.064 81.3514 15.328 81.1434 15.6C80.9354 15.856 80.6794 16.168 80.3754 16.536C80.1674 16.808 79.8794 17.12 79.5114 17.472C79.1434 17.824 78.8474 18.048 78.6234 18.144ZM103.307 18.192C103.243 18.192 103.123 18.168 102.947 18.12C102.771 18.072 102.563 17.992 102.323 17.88C102.099 17.768 101.883 17.624 101.675 17.448C101.467 17.272 101.299 17.056 101.171 16.8C101.059 16.656 100.883 16.456 100.643 16.2C100.403 15.944 100.195 15.712 100.019 15.504C99.4267 14.912 98.9227 14.368 98.5067 13.872C98.1067 13.376 97.7867 12.952 97.5467 12.6C97.3547 12.408 97.1707 12.224 96.9947 12.048C96.8347 11.856 96.6827 11.696 96.5387 11.568C96.3947 11.424 96.2587 11.336 96.1307 11.304C96.0507 11.368 95.9787 11.464 95.9147 11.592C95.8507 11.72 95.7947 11.92 95.7467 12.192C95.6347 12.432 95.5307 12.728 95.4347 13.08C95.3387 13.432 95.2667 13.704 95.2187 13.896C95.0907 14.184 94.9867 14.472 94.9067 14.76C94.8427 15.032 94.7787 15.272 94.7147 15.48C94.6507 15.688 94.5867 15.856 94.5227 15.984C94.4747 16.112 94.4187 16.208 94.3547 16.272C94.3547 16.272 94.3307 16.384 94.2827 16.608C94.2347 16.816 94.1867 17.016 94.1387 17.208C93.9787 17.992 93.8267 18.432 93.6827 18.528C93.5547 18.64 93.2827 18.52 92.8667 18.168C92.7547 17.96 92.6587 17.792 92.5787 17.664C92.4987 17.536 92.4587 17.44 92.4587 17.376C92.4587 17.376 92.5067 17.24 92.6027 16.968C92.6987 16.68 92.8027 16.344 92.9147 15.96C92.9947 15.688 93.1067 15.336 93.2507 14.904C93.4107 14.456 93.5707 13.984 93.7307 13.488C93.8907 12.976 94.0427 12.488 94.1867 12.024C94.3307 11.544 94.4427 11.136 94.5227 10.8C94.5867 10.736 94.6187 10.672 94.6187 10.608C94.6347 10.544 94.6427 10.456 94.6427 10.344C94.6747 10.248 94.7547 10.024 94.8827 9.672C95.0107 9.304 95.1627 8.896 95.3387 8.448C95.5147 7.984 95.6827 7.552 95.8427 7.152C96.0187 6.736 96.1627 6.44 96.2747 6.264C96.3387 6.136 96.3707 6.024 96.3707 5.928C96.3867 5.832 96.3947 5.784 96.3947 5.784C96.3947 5.64 96.4667 5.552 96.6107 5.52C96.6107 5.44 96.6107 5.36 96.6107 5.28C96.6267 5.2 96.6667 5.128 96.7307 5.064C96.7787 4.936 96.8747 4.688 97.0187 4.32C97.1627 3.952 97.3067 3.552 97.4507 3.12C97.6107 2.672 97.7467 2.28 97.8587 1.944C97.9707 1.608 98.0267 1.424 98.0267 1.392C98.0267 1.312 98.0507 1.248 98.0987 1.2C98.1467 1.136 98.1947 1.072 98.2427 1.008C98.4027 0.879999 98.5627 0.823999 98.7227 0.84C98.8987 0.84 99.0667 0.896 99.2267 1.008C99.4027 1.12 99.5547 1.28 99.6827 1.488C99.6827 1.552 99.6587 1.696 99.6107 1.92C99.5627 2.144 99.4827 2.392 99.3707 2.664C99.2587 2.936 99.1547 3.176 99.0587 3.384C98.9627 3.592 98.9147 3.696 98.9147 3.696C98.9147 3.696 98.8187 3.96 98.6267 4.488C98.4507 5 98.2267 5.616 97.9547 6.336C97.6347 6.992 97.3707 7.584 97.1627 8.112C96.9707 8.624 96.9067 8.912 96.9707 8.976C96.9707 8.976 97.1867 8.816 97.6187 8.496C98.0507 8.16 98.5227 7.744 99.0347 7.248C99.4507 6.832 99.9067 6.432 100.403 6.048C100.899 5.648 101.403 5.264 101.915 4.896C102.651 4.4 103.203 4.032 103.571 3.792C103.955 3.536 104.243 3.368 104.435 3.288C104.627 3.192 104.811 3.144 104.987 3.144C105.195 3.064 105.331 3.056 105.395 3.12C105.459 3.168 105.587 3.248 105.779 3.36C105.843 3.472 105.899 3.584 105.947 3.696C106.011 3.792 106.043 3.84 106.043 3.84C106.059 4 105.971 4.152 105.779 4.296C105.587 4.44 105.307 4.608 104.939 4.8C104.539 5.056 104.051 5.392 103.475 5.808C102.915 6.208 102.331 6.648 101.723 7.128C101.131 7.608 100.571 8.08 100.043 8.544C99.5147 9.008 99.0667 9.424 98.6987 9.792C98.3467 10.144 98.1387 10.408 98.0747 10.584C97.9627 10.696 97.9227 10.808 97.9547 10.92C98.0027 11.032 98.1787 11.232 98.4827 11.52C98.7067 11.792 98.8827 12.016 99.0107 12.192C99.1387 12.352 99.2027 12.432 99.2027 12.432C99.2027 12.464 99.2907 12.576 99.4667 12.768C99.6427 12.96 99.8507 13.176 100.091 13.416C100.347 13.656 100.579 13.88 100.787 14.088C100.851 14.248 101.027 14.472 101.315 14.76C101.603 15.032 101.875 15.368 102.131 15.768C102.899 16.568 103.387 17.168 103.595 17.568C103.819 17.968 103.723 18.176 103.307 18.192ZM114.086 19.152C113.798 19.04 113.558 18.888 113.366 18.696C113.19 18.504 113.134 18.248 113.198 17.928C113.198 17.928 113.262 17.776 113.39 17.472C113.518 17.184 113.67 16.824 113.846 16.392C114.038 15.944 114.222 15.504 114.398 15.072C114.574 14.64 114.726 14.28 114.854 13.992C114.982 13.688 115.046 13.536 115.046 13.536C115.158 13.248 115.31 12.856 115.502 12.36C115.71 11.864 115.91 11.36 116.102 10.848C116.31 10.32 116.486 9.864 116.63 9.48C116.774 9.096 116.846 8.88 116.846 8.832C117.022 8.432 117.174 8.024 117.302 7.608C117.43 7.192 117.59 6.792 117.782 6.408C117.926 6.088 118.054 5.8 118.166 5.544C118.278 5.272 118.334 5.032 118.334 4.824C118.334 4.824 118.166 5 117.83 5.352C117.51 5.704 117.078 6.176 116.534 6.768C115.99 7.344 115.39 7.984 114.734 8.688C114.094 9.376 113.446 10.072 112.79 10.776C112.15 11.48 111.558 12.128 111.014 12.72C110.47 13.296 110.03 13.76 109.694 14.112C109.358 14.464 109.19 14.64 109.19 14.64C108.838 14.912 108.51 15.208 108.206 15.528C107.918 15.832 107.598 16.12 107.246 16.392C107.102 16.504 106.926 16.648 106.718 16.824C106.51 16.984 106.31 17.128 106.118 17.256C105.926 17.4 105.782 17.472 105.686 17.472C105.222 17.392 104.926 17.264 104.798 17.088C104.67 16.896 104.646 16.664 104.726 16.392C104.806 16.104 104.918 15.768 105.062 15.384C105.142 15.128 105.214 14.872 105.278 14.616C105.358 14.344 105.414 14.08 105.446 13.824C105.558 13.344 105.678 12.896 105.806 12.48C105.934 12.064 106.054 11.664 106.166 11.28C106.278 10.912 106.39 10.544 106.502 10.176C106.614 9.792 106.678 9.4 106.694 9C106.886 8.68 107.046 8.368 107.174 8.064C107.302 7.744 107.422 7.424 107.534 7.104C107.646 6.784 107.774 6.464 107.918 6.144C108.094 5.76 108.238 5.368 108.35 4.968C108.478 4.552 108.63 4.144 108.806 3.744C108.918 3.52 109.07 3.224 109.262 2.856C109.454 2.488 109.63 2.112 109.79 1.728C109.966 1.344 110.054 1.016 110.054 0.744C110.054 0.567999 110.118 0.471999 110.246 0.455999C110.374 0.44 110.518 0.464 110.678 0.528C110.838 0.592 110.974 0.672 111.086 0.768C111.214 0.863999 111.286 0.935999 111.302 0.984C111.35 1.128 111.382 1.28 111.398 1.44C111.43 1.6 111.406 1.768 111.326 1.944L109.334 7.008L107.15 12.792C106.958 13.416 106.846 13.904 106.814 14.256C106.798 14.608 106.902 14.728 107.126 14.616L111.974 9.768C112.246 9.48 112.51 9.184 112.766 8.88C113.038 8.56 113.294 8.248 113.534 7.944C113.598 7.912 113.758 7.752 114.014 7.464C114.286 7.176 114.598 6.832 114.95 6.432C115.302 6.032 115.638 5.656 115.958 5.304C116.278 4.936 116.518 4.664 116.678 4.488L119.726 1.248L120.182 1.104C120.326 1.088 120.47 1.136 120.614 1.248C120.758 1.36 120.862 1.504 120.926 1.68C121.006 1.856 121.006 2.04 120.926 2.232C120.926 2.232 120.846 2.44 120.686 2.856C120.542 3.272 120.35 3.808 120.11 4.464C119.87 5.104 119.614 5.784 119.342 6.504C119.086 7.224 118.838 7.904 118.598 8.544C118.358 9.184 118.158 9.712 117.998 10.128C117.854 10.528 117.774 10.728 117.758 10.728C117.774 10.68 117.718 10.808 117.59 11.112C117.478 11.416 117.326 11.816 117.134 12.312C116.942 12.808 116.742 13.32 116.534 13.848C116.326 14.36 116.142 14.816 115.982 15.216C115.838 15.616 115.75 15.872 115.718 15.984C115.654 16.192 115.574 16.4 115.478 16.608C115.398 16.8 115.31 16.992 115.214 17.184C115.102 17.392 115.006 17.608 114.926 17.832C114.862 18.072 114.806 18.304 114.758 18.528C114.71 18.704 114.614 18.864 114.47 19.008C114.326 19.168 114.198 19.216 114.086 19.152ZM128.867 19.08C128.659 19 128.491 18.88 128.363 18.72C128.251 18.576 128.155 18.392 128.075 18.168C128.107 18.072 128.171 17.816 128.267 17.4C128.363 16.984 128.483 16.488 128.627 15.912C128.771 15.336 128.931 14.752 129.107 14.16C129.283 13.552 129.451 13.008 129.611 12.528C129.675 12.128 129.715 11.848 129.731 11.688C129.763 11.512 129.771 11.4 129.755 11.352C129.739 11.304 129.699 11.264 129.635 11.232C129.539 11.168 129.307 11.096 128.939 11.016C128.587 10.936 128.179 10.856 127.715 10.776C127.251 10.696 126.803 10.624 126.371 10.56C125.939 10.48 125.611 10.424 125.387 10.392C125.195 10.408 124.987 10.384 124.763 10.32C124.539 10.256 124.323 10.232 124.115 10.248C123.859 10.248 123.699 10.24 123.635 10.224C123.571 10.208 123.515 10.16 123.467 10.08C123.451 9.984 123.419 9.96 123.371 10.008C123.339 10.056 123.259 10.264 123.131 10.632C123.003 11 122.811 11.608 122.555 12.456C122.283 13.288 122.083 13.96 121.955 14.472C121.843 14.984 121.763 15.4 121.715 15.72C121.667 16.04 121.619 16.32 121.571 16.56C121.459 16.928 121.355 17.296 121.259 17.664C121.179 18.032 121.099 18.328 121.019 18.552C120.955 18.792 120.875 18.92 120.779 18.936C120.747 19 120.675 19 120.563 18.936C120.467 18.888 120.347 18.832 120.203 18.768C119.963 18.592 119.819 18.392 119.771 18.168C119.723 17.944 119.755 17.592 119.867 17.112C119.995 16.616 120.171 15.88 120.395 14.904C120.523 14.264 120.643 13.664 120.755 13.104C120.883 12.544 121.003 12.216 121.115 12.12C121.195 11.848 121.299 11.44 121.427 10.896C121.571 10.336 121.747 9.824 121.955 9.36C122.083 8.88 122.275 8.296 122.531 7.608C122.803 6.92 123.091 6.216 123.395 5.496C123.699 4.76 123.987 4.08 124.259 3.456C124.531 2.832 124.747 2.336 124.907 1.968C125.035 1.856 125.163 1.696 125.291 1.488C125.435 1.28 125.515 1.12 125.531 1.008C125.659 0.768 125.755 0.632 125.819 0.6C125.899 0.552 125.995 0.536 126.107 0.552C126.315 0.584 126.499 0.672 126.659 0.815999C126.835 0.959999 126.963 1.128 127.043 1.32C127.139 1.496 127.147 1.664 127.067 1.824C126.955 1.936 126.787 2.176 126.563 2.544C126.339 2.896 126.067 3.472 125.747 4.272C125.667 4.432 125.531 4.64 125.339 4.896C125.163 5.152 125.035 5.392 124.955 5.616C124.843 5.792 124.771 5.968 124.739 6.144C124.723 6.32 124.675 6.448 124.595 6.528C124.547 6.64 124.467 6.808 124.355 7.032C124.243 7.256 124.131 7.496 124.019 7.752C123.907 8.008 123.811 8.232 123.731 8.424C123.667 8.616 123.643 8.728 123.659 8.76C123.691 8.792 123.867 8.832 124.187 8.88C124.523 8.928 124.891 8.976 125.291 9.024C125.707 9.056 126.035 9.088 126.275 9.12C126.355 9.104 126.523 9.12 126.779 9.168C127.051 9.2 127.355 9.24 127.691 9.288C128.043 9.336 128.387 9.384 128.723 9.432C129.203 9.592 129.603 9.696 129.923 9.744C130.259 9.792 130.435 9.784 130.451 9.72C130.451 9.72 130.483 9.632 130.547 9.456C130.627 9.28 130.739 9.024 130.883 8.688C130.947 8.448 131.051 8.048 131.195 7.488C131.355 6.928 131.515 6.4 131.675 5.904C131.867 5.568 132.035 5.2 132.179 4.8C132.323 4.384 132.435 3.984 132.515 3.6C132.611 3.2 132.683 2.872 132.731 2.616C132.843 2.136 132.971 1.752 133.115 1.464C133.275 1.176 133.395 0.967999 133.475 0.84C133.475 0.84 133.523 0.864 133.619 0.911999C133.731 0.944 133.843 0.976 133.955 1.008C134.243 1.056 134.427 1.192 134.507 1.416C134.603 1.624 134.603 1.968 134.507 2.448C134.411 2.928 134.211 3.592 133.907 4.44C133.843 4.648 133.723 4.952 133.547 5.352C133.387 5.736 133.235 6.128 133.091 6.528C132.947 6.912 132.851 7.2 132.803 7.392C132.675 7.792 132.539 8.168 132.395 8.52C132.251 8.872 132.043 9.352 131.771 9.96C131.755 10.008 131.771 10.128 131.819 10.32C131.867 10.496 131.931 10.672 132.011 10.848C132.139 11.04 132.211 11.2 132.227 11.328C132.243 11.456 132.203 11.552 132.107 11.616C132.011 11.68 131.859 11.712 131.651 11.712C131.443 11.696 131.291 11.736 131.195 11.832C131.115 11.928 131.051 12.16 131.003 12.528C130.827 12.928 130.651 13.424 130.475 14.016C130.299 14.592 130.139 15.184 129.995 15.792C129.851 16.4 129.731 16.952 129.635 17.448C129.555 17.944 129.515 18.296 129.515 18.504C129.403 18.84 129.323 19.032 129.275 19.08C129.227 19.128 129.091 19.128 128.867 19.08ZM136.414 17.112C135.582 16.808 134.99 16.264 134.638 15.48C134.302 14.696 134.238 13.696 134.446 12.48C134.478 12.016 134.55 11.6 134.662 11.232C134.79 10.864 134.886 10.496 134.95 10.128C134.95 10.096 134.966 10.048 134.998 9.984C135.03 9.904 135.038 9.832 135.022 9.768C135.054 9.672 135.126 9.496 135.238 9.24C135.35 8.968 135.462 8.712 135.574 8.472C135.686 8.216 135.758 8.072 135.79 8.04C135.87 8.008 135.91 7.968 135.91 7.92C135.91 7.856 135.91 7.824 135.91 7.824C135.91 7.696 135.998 7.464 136.174 7.128C136.35 6.792 136.574 6.424 136.846 6.024C137.134 5.608 137.422 5.208 137.71 4.824C137.998 4.44 138.254 4.12 138.478 3.864C138.702 3.608 138.846 3.48 138.91 3.48C138.958 3.48 138.998 3.448 139.03 3.384C139.062 3.32 139.094 3.28 139.126 3.264C139.174 3.2 139.294 3.112 139.486 3C139.694 2.888 139.934 2.768 140.206 2.64C140.478 2.512 140.75 2.392 141.022 2.28C141.31 2.168 141.574 2.088 141.814 2.04C142.518 1.784 143.102 1.776 143.566 2.016C144.03 2.24 144.382 2.688 144.622 3.36C144.878 4.032 145.014 4.912 145.03 6C144.966 6.352 144.926 6.688 144.91 7.008C144.91 7.312 144.886 7.536 144.838 7.68C144.822 8.032 144.766 8.432 144.67 8.88C144.574 9.328 144.478 9.72 144.382 10.056C144.286 10.376 144.214 10.544 144.166 10.56C144.166 10.624 144.15 10.688 144.118 10.752C144.086 10.8 144.07 10.848 144.07 10.896C144.086 10.976 144.03 11.16 143.902 11.448C143.774 11.736 143.622 12.056 143.446 12.408C143.27 12.76 143.11 13.064 142.966 13.32C142.822 13.576 142.734 13.704 142.702 13.704C142.702 13.704 142.686 13.712 142.654 13.728C142.622 13.728 142.614 13.76 142.63 13.824C142.646 13.856 142.59 13.936 142.462 14.064C142.334 14.192 142.19 14.32 142.03 14.448C141.886 14.56 141.774 14.616 141.694 14.616C141.694 14.616 141.678 14.624 141.646 14.64C141.63 14.656 141.646 14.688 141.694 14.736C141.71 14.768 141.598 14.888 141.358 15.096C141.134 15.288 140.846 15.512 140.494 15.768C140.142 16.008 139.782 16.24 139.414 16.464C139.062 16.672 138.766 16.8 138.526 16.848C138.478 16.912 138.43 16.952 138.382 16.968C138.334 16.968 138.27 16.976 138.19 16.992C138.078 17.104 137.91 17.184 137.686 17.232C137.478 17.28 137.254 17.288 137.014 17.256C136.79 17.24 136.59 17.192 136.414 17.112ZM138.454 15.336C138.774 15.224 139.126 15.04 139.51 14.784C139.894 14.512 140.238 14.232 140.542 13.944C140.862 13.64 141.054 13.384 141.118 13.176C141.166 13 141.214 12.872 141.262 12.792C141.326 12.696 141.39 12.624 141.454 12.576C141.582 12.448 141.742 12.208 141.934 11.856C142.142 11.504 142.342 11.112 142.534 10.68C142.726 10.248 142.886 9.848 143.014 9.48C143.158 9.096 143.238 8.816 143.254 8.64C143.254 8.608 143.278 8.472 143.326 8.232C143.374 7.992 143.43 7.816 143.494 7.704C143.526 7.64 143.55 7.56 143.566 7.464C143.582 7.352 143.598 7.136 143.614 6.816C143.63 6.496 143.646 5.984 143.662 5.28C143.646 4.704 143.614 4.272 143.566 3.984C143.534 3.696 143.454 3.52 143.326 3.456C143.294 3.424 143.182 3.408 142.99 3.408C142.798 3.408 142.598 3.424 142.39 3.456C142.182 3.472 142.022 3.504 141.91 3.552C141.83 3.568 141.75 3.608 141.67 3.672C141.59 3.72 141.502 3.744 141.406 3.744C141.278 3.808 141.182 3.888 141.118 3.984C141.054 4.08 141.022 4.152 141.022 4.2C141.022 4.328 140.966 4.448 140.854 4.56C140.742 4.656 140.614 4.664 140.47 4.584C140.214 4.6 140.022 4.648 139.894 4.728C139.766 4.792 139.646 4.912 139.534 5.088C139.438 5.264 139.286 5.528 139.078 5.88C138.63 6.232 138.31 6.576 138.118 6.912C137.926 7.248 137.814 7.504 137.782 7.68C137.446 8.288 137.19 8.76 137.014 9.096C136.838 9.416 136.71 9.704 136.63 9.96C136.566 10.216 136.51 10.528 136.462 10.896C136.318 11.168 136.214 11.456 136.15 11.76C136.086 12.064 136.03 12.264 135.982 12.36C135.95 12.44 135.926 12.608 135.91 12.864C135.894 13.12 135.886 13.408 135.886 13.728C135.886 14.048 135.894 14.344 135.91 14.616C135.942 14.872 135.982 15.048 136.03 15.144C136.126 15.512 136.382 15.712 136.798 15.744C137.23 15.776 137.782 15.64 138.454 15.336Z" fill="black"/>
</svg>
