<svg xmlns="http://www.w3.org/2000/svg" viewBox="0 0 640 360" fill="none">
  <defs>
    <linearGradient id="bg" x1="0" y1="0" x2="1" y2="1">
      <stop offset="0%" stop-color="#fff1f2"/>
      <stop offset="100%" stop-color="#fee2e2"/>
    </linearGradient>
    <linearGradient id="hat" x1="0" y1="0" x2="1" y2="1">
      <stop offset="0%" stop-color="#f97316"/>
      <stop offset="100%" stop-color="#b91c1c"/>
    </linearGradient>
  </defs>
  <rect width="640" height="360" rx="44" fill="url(#bg)"/>
  <circle cx="108" cy="86" r="42" fill="#fff" fill-opacity=".28"/>
  <g transform="translate(153 34)">
    <circle cx="167" cy="42" r="34" fill="#fed7aa" stroke="#fdba74" stroke-width="10"/>
    <path d="M166 64c72 0 122 60 122 138v12H44v-12c0-78 50-138 122-138Z" fill="url(#hat)"/>
    <rect x="54" y="190" width="224" height="56" rx="22" fill="#991b1b"/>
    <circle cx="106" cy="142" r="9" fill="#fdba74" fill-opacity=".5"/>
    <circle cx="143" cy="108" r="9" fill="#fdba74" fill-opacity=".45"/>
    <circle cx="176" cy="128" r="9" fill="#fdba74" fill-opacity=".45"/>
    <circle cx="212" cy="102" r="9" fill="#fdba74" fill-opacity=".45"/>
    <circle cx="236" cy="142" r="9" fill="#fdba74" fill-opacity=".45"/>
    <circle cx="134" cy="162" r="9" fill="#fdba74" fill-opacity=".4"/>
    <circle cx="198" cy="168" r="9" fill="#fdba74" fill-opacity=".4"/>
  </g>
</svg>