<svg xmlns="http://www.w3.org/2000/svg" viewBox="0 0 320 220" fill="none">
  <defs>
    <linearGradient id="bg" x1="0" y1="0" x2="1" y2="1">
      <stop offset="0%" stop-color="#eff6ff"/>
      <stop offset="100%" stop-color="#dbeafe"/>
    </linearGradient>
    <linearGradient id="hat" x1="0" y1="0" x2="1" y2="1">
      <stop offset="0%" stop-color="#7c3aed"/>
      <stop offset="100%" stop-color="#1d4ed8"/>
    </linearGradient>
  </defs>
  <rect width="320" height="220" rx="32" fill="url(#bg)"/>
  <g transform="translate(54 10)">
    <path d="M80 22c38-10 92 8 110 54 12 30 6 61-8 88l-20 10c8-20 7-38-8-58-18-24-29-56-36-84-8 0-22 4-38 14Z" fill="url(#hat)" opacity=".92"/>
    <path d="M92 8c52 0 90 48 90 102v12H12v-12C12 56 40 18 92 8Z" fill="url(#hat)"/>
    <rect x="18" y="108" width="148" height="34" rx="16" fill="#1d4ed8"/>
    <path d="M54 44c14-18 34-28 64-30" stroke="#e0e7ff" stroke-opacity=".3" stroke-width="7" stroke-linecap="round"/>
    <path d="M66 32v102" stroke="#dbeafe" stroke-opacity=".18" stroke-width="6" stroke-linecap="round"/>
    <path d="M92 24v112" stroke="#dbeafe" stroke-opacity=".16" stroke-width="6" stroke-linecap="round"/>
    <path d="M118 28v110" stroke="#dbeafe" stroke-opacity=".16" stroke-width="6" stroke-linecap="round"/>
    <path d="M144 38v100" stroke="#dbeafe" stroke-opacity=".18" stroke-width="6" stroke-linecap="round"/>
  </g>
</svg>