<svg xmlns="http://www.w3.org/2000/svg" viewBox="0 0 320 220" fill="none">
  <defs>
    <linearGradient id="bg" x1="0" y1="0" x2="1" y2="1">
      <stop offset="0%" stop-color="#fdf2f8"/>
      <stop offset="100%" stop-color="#ffe4e6"/>
    </linearGradient>
    <linearGradient id="hat" x1="0" y1="0" x2="1" y2="1">
      <stop offset="0%" stop-color="#ef4444"/>
      <stop offset="100%" stop-color="#be123c"/>
    </linearGradient>
  </defs>
  <rect width="320" height="220" rx="32" fill="url(#bg)"/>
  <g transform="translate(66 10)">
    <circle cx="96" cy="24" r="24" fill="#fecdd3" stroke="#fb7185" stroke-width="8"/>
    <circle cx="80" cy="22" r="3" fill="#fb7185"/>
    <circle cx="111" cy="19" r="4" fill="#fb7185"/>
    <circle cx="98" cy="8" r="4" fill="#fb7185"/>
    <circle cx="94" cy="39" r="3" fill="#fb7185"/>
    <path d="M94 34c48 0 78 38 78 90v10H16v-10C16 72 46 34 94 34Z" fill="url(#hat)"/>
    <rect x="20" y="118" width="148" height="34" rx="16" fill="#9f1239"/>
    <path d="M42 74c12-14 28-24 54-28" stroke="#ffe4e6" stroke-opacity=".28" stroke-width="7" stroke-linecap="round"/>
    <path d="M64 54v98" stroke="#ffe4e6" stroke-opacity=".18" stroke-width="6" stroke-linecap="round"/>
    <path d="M90 46v108" stroke="#ffe4e6" stroke-opacity=".16" stroke-width="6" stroke-linecap="round"/>
    <path d="M116 48v106" stroke="#ffe4e6" stroke-opacity=".16" stroke-width="6" stroke-linecap="round"/>
    <path d="M142 60v94" stroke="#ffe4e6" stroke-opacity=".18" stroke-width="6" stroke-linecap="round"/>
  </g>
</svg>