<svg xmlns="http://www.w3.org/2000/svg" viewBox="0 0 320 220" fill="none">
  <defs>
    <linearGradient id="bg" x1="0" y1="0" x2="1" y2="1">
      <stop offset="0%" stop-color="#fff7ed"/>
      <stop offset="100%" stop-color="#ffedd5"/>
    </linearGradient>
    <linearGradient id="hat" x1="0" y1="0" x2="1" y2="1">
      <stop offset="0%" stop-color="#c08457"/>
      <stop offset="100%" stop-color="#7c2d12"/>
    </linearGradient>
  </defs>
  <rect width="320" height="220" rx="32" fill="url(#bg)"/>
  <g transform="translate(66 20)">
    <path d="M94 8c46 0 78 39 78 92v18H16v-18C16 47 48 8 94 8Z" fill="url(#hat)"/>
    <rect x="12" y="102" width="164" height="56" rx="20" fill="#7c2d12"/>
    <rect x="20" y="112" width="148" height="36" rx="16" fill="#9a3412" opacity=".88"/>
    <path d="M46 54c12-14 28-24 54-28" stroke="#fed7aa" stroke-opacity=".28" stroke-width="7" stroke-linecap="round"/>
    <path d="M64 28v122" stroke="#fed7aa" stroke-opacity=".18" stroke-width="6" stroke-linecap="round"/>
    <path d="M92 20v130" stroke="#ffedd5" stroke-opacity=".16" stroke-width="6" stroke-linecap="round"/>
    <path d="M120 24v126" stroke="#ffedd5" stroke-opacity=".16" stroke-width="6" stroke-linecap="round"/>
    <path d="M148 34v116" stroke="#fed7aa" stroke-opacity=".18" stroke-width="6" stroke-linecap="round"/>
  </g>
</svg>